<svg version="1.1" id="Layer_1" xmlns="http://www.w3.org/2000/svg" xmlns:xlink="http://www.w3.org/1999/xlink" x="0px" y="0px"
	 width="100%" viewBox="0 0 299 227" enable-background="new 0 0 299 227" xml:space="preserve">
<path fill="#FEFEFE" opacity="1.000000" stroke="none" 
	d="
M206.000000,228.000000 
	C137.333344,228.000000 69.166679,228.000000 1.000018,228.000000 
	C1.000012,152.333344 1.000012,76.666702 1.000006,1.000039 
	C100.666634,1.000026 200.333267,1.000026 299.999939,1.000013 
	C299.999939,76.666634 299.999939,152.333267 299.999969,227.999939 
	C268.833344,228.000000 237.666672,228.000000 206.000000,228.000000 
M123.030571,56.937641 
	C122.309273,57.599468 121.587975,58.261292 120.308159,59.140034 
	C119.421951,60.179138 118.535736,61.218243 117.014557,62.493275 
	C115.631477,64.241753 114.248398,65.990227 112.345535,68.067596 
	C111.781654,69.135223 111.217781,70.202850 110.032509,71.613808 
	C109.339188,73.067978 108.645859,74.522141 107.505058,76.506622 
	C106.562904,78.956657 105.620750,81.406685 104.122795,84.380379 
	C103.706879,87.567810 103.290955,90.755241 102.560799,94.642982 
	C102.719231,97.423134 102.877663,100.203293 102.934669,103.679977 
	C103.058174,104.126526 103.181671,104.573082 103.318413,105.723984 
	C104.563225,108.346283 103.866341,110.472275 101.002945,112.456566 
	C95.370300,117.980392 89.737663,123.504227 83.701653,129.423645 
	C86.088753,131.011993 87.538376,131.976562 88.820587,132.829727 
	C94.273735,126.736366 99.450081,120.952324 105.281593,114.936104 
	C105.922707,115.305214 106.846016,115.512764 107.163399,116.067192 
	C114.000687,128.010956 125.330788,131.669952 138.755722,133.196564 
	C142.838440,133.133881 146.921173,133.071198 151.788467,133.140625 
	C153.554916,132.821732 155.321381,132.502838 157.822144,132.216278 
	C159.214737,131.808426 160.607330,131.400574 162.739243,131.031372 
	C165.495621,129.692200 168.252014,128.353012 171.670593,126.857666 
	C173.471390,124.577019 175.272202,122.296379 177.617401,119.456230 
	C176.734207,115.639160 175.850998,111.822083 175.435837,107.550133 
	C176.291000,107.373962 177.146179,107.197800 178.832214,107.121239 
	C180.929794,106.822052 183.027390,106.522865 185.782333,106.171844 
	C186.584259,105.899063 187.386169,105.626282 188.938370,105.299706 
	C191.006134,104.607399 193.073898,103.915085 195.821457,103.111191 
	C197.389801,102.113838 198.958145,101.116486 201.195480,100.141548 
	C203.196777,98.110840 205.198090,96.080124 207.732178,93.744240 
	C208.152756,92.828804 208.573334,91.913361 209.545273,90.484337 
	C209.986649,87.329140 210.428024,84.173935 210.961990,80.222725 
	C209.477661,69.375656 201.799026,61.138985 190.482208,58.382305 
	C186.616058,58.110134 182.749924,57.837963 178.029312,57.662663 
	C176.016846,57.808735 174.004364,57.954807 171.214996,58.055958 
	C168.509399,58.830307 165.803802,59.604656 162.483261,60.383144 
	C161.482635,58.883797 160.215652,57.496426 159.529709,55.864788 
	C157.167236,50.245319 153.084656,47.294624 146.186798,47.028481 
	C143.703568,47.623726 141.220322,48.218971 138.054092,48.871105 
	C135.987015,49.766506 133.919937,50.661911 131.221588,51.757050 
	C130.131241,52.453548 129.040894,53.150043 127.295532,53.970421 
	C126.061508,54.897808 124.827477,55.825199 123.030571,56.937641 
M119.800774,178.081039 
	C119.790916,174.923111 119.855820,171.762787 119.754356,168.607803 
	C119.585213,163.348557 119.309532,158.092743 119.078705,152.835464 
	C120.194664,150.587341 122.005402,147.975357 118.745224,145.418152 
	C117.677345,144.580536 114.610817,144.691620 113.640770,145.613327 
	C109.990570,149.081650 113.457909,151.311218 115.034767,152.682251 
	C114.186142,155.659393 113.122185,157.833832 113.018120,160.053299 
	C112.722687,166.353638 112.819405,172.672363 112.031548,178.985321 
	C110.578041,178.975327 109.124535,178.965332 107.406136,178.060776 
	C107.394203,174.402969 107.304993,170.743378 107.389633,167.087799 
	C107.499062,162.360931 106.767769,157.983841 102.113876,155.582153 
	C97.561768,153.233002 93.430519,154.545715 90.398247,157.252014 
	C87.511955,156.203400 84.557236,153.997513 82.831322,154.721390 
	C78.192818,156.666855 73.647972,154.520264 69.030380,155.277267 
	C69.030380,163.987762 69.030380,172.419479 69.030380,181.010040 
	C71.243172,181.010040 73.295319,181.010040 75.661308,181.010040 
	C75.661308,175.905106 75.608513,171.109833 75.680428,166.316422 
	C75.726059,163.275146 77.079224,161.074890 80.388077,161.061386 
	C83.895927,161.047073 84.731453,163.519440 84.735947,166.483551 
	C84.743195,171.274261 84.737892,176.065018 84.737892,181.018829 
	C87.132805,181.018829 89.184235,181.018829 91.559723,181.018829 
	C91.559723,175.938309 91.465149,171.144897 91.594635,166.357559 
	C91.674339,163.410629 92.933151,161.089752 96.296837,161.057983 
	C99.917915,161.023788 100.534050,163.601761 100.541252,166.507599 
	C100.553101,171.286362 100.544472,176.065170 100.544472,181.091980 
	C103.090813,181.091980 105.200951,181.091980 108.112572,181.056534 
	C109.721603,181.044815 111.330643,181.033112 113.775482,181.280716 
	C115.793785,181.163925 117.812088,181.047134 120.693214,180.968201 
	C122.415474,180.994507 124.137741,181.020813 126.749748,181.275131 
	C128.549835,181.275131 130.349915,181.275131 132.673340,181.275131 
	C132.673340,176.136124 132.594727,171.349106 132.699173,166.566071 
	C132.777435,162.981476 134.754929,160.989258 138.365356,161.061020 
	C141.906281,161.131393 143.243149,163.333191 143.216293,166.664688 
	C143.177948,171.423645 143.206528,176.183136 143.206528,180.992493 
	C145.783310,180.992493 147.835938,180.992493 149.989365,180.992493 
	C149.989365,175.169922 150.271072,169.674194 149.922791,164.218704 
	C149.411072,156.203201 142.639099,152.363968 135.321579,155.579117 
	C134.469269,155.953598 133.429199,156.232864 132.535233,156.113571 
	C130.452713,155.835678 128.406204,155.287827 125.635727,154.698425 
	C125.635727,163.424942 125.635727,171.199860 124.833870,178.976974 
	C123.222511,178.984650 121.611160,178.992325 119.800774,178.081039 
M156.570572,176.852814 
	C161.658066,182.349182 165.877014,183.317230 172.540070,180.598312 
	C173.255020,180.306564 174.135910,180.179153 174.896072,180.286209 
	C177.110046,180.597977 179.301804,181.067444 181.428207,181.461365 
	C181.428207,172.125595 181.428207,163.718094 181.428207,155.108246 
	C176.312408,154.901245 171.575043,156.672241 166.650162,154.678192 
	C164.828461,153.940582 161.494888,155.652679 159.417130,157.074844 
	C153.408066,161.187943 152.333191,168.470917 156.570572,176.852814 
M227.299362,165.982254 
	C228.562363,162.497101 229.825348,159.011963 231.074814,155.564163 
	C225.342789,153.766174 223.032181,156.126053 222.013931,161.077805 
	C221.312286,164.489883 219.848389,167.745224 218.294327,172.346115 
	C216.443634,167.539780 214.781921,164.096725 213.802307,160.469452 
	C212.436584,155.412521 209.515686,153.944626 204.441574,155.597992 
	C207.061401,161.879318 209.622879,168.162079 212.296783,174.396637 
	C215.807831,182.583069 215.845932,182.566727 207.976639,186.169739 
	C208.057632,187.882019 208.141830,189.661865 208.235931,191.651276 
	C214.674698,191.981583 218.580429,188.824890 220.797409,183.531586 
	C223.104584,178.022949 224.985809,172.335907 227.299362,165.982254 
M198.476791,162.802856 
	C199.831787,162.375092 201.186783,161.947311 202.165497,161.638336 
	C202.165497,159.017731 202.165497,156.816528 202.165497,153.952667 
	C199.501968,155.180588 197.462112,156.120972 196.739349,156.454178 
	C193.217712,155.734970 190.787506,155.238647 188.040573,154.677658 
	C188.040573,163.908371 188.040573,172.361069 188.040573,180.923447 
	C190.329727,180.923447 192.515976,180.923447 194.804276,180.923447 
	C194.804276,177.022537 194.443756,173.481934 194.927475,170.060715 
	C195.265671,167.668716 196.758392,165.439957 198.476791,162.802856 
z"/>
<path fill="#0B0B0B" opacity="1.000000" stroke="none" 
	d="
M107.311081,181.091980 
	C105.200951,181.091980 103.090813,181.091980 100.544472,181.091980 
	C100.544472,176.065170 100.553101,171.286362 100.541252,166.507599 
	C100.534050,163.601761 99.917915,161.023788 96.296837,161.057983 
	C92.933151,161.089752 91.674339,163.410629 91.594635,166.357559 
	C91.465149,171.144897 91.559723,175.938309 91.559723,181.018829 
	C89.184235,181.018829 87.132805,181.018829 84.737892,181.018829 
	C84.737892,176.065018 84.743195,171.274261 84.735947,166.483551 
	C84.731453,163.519440 83.895927,161.047073 80.388077,161.061386 
	C77.079224,161.074890 75.726059,163.275146 75.680428,166.316422 
	C75.608513,171.109833 75.661308,175.905106 75.661308,181.010040 
	C73.295319,181.010040 71.243172,181.010040 69.030380,181.010040 
	C69.030380,172.419479 69.030380,163.987762 69.030380,155.277267 
	C73.647972,154.520264 78.192818,156.666855 82.831322,154.721390 
	C84.557236,153.997513 87.511955,156.203400 90.398247,157.252014 
	C93.430519,154.545715 97.561768,153.233002 102.113876,155.582153 
	C106.767769,157.983841 107.499062,162.360931 107.389633,167.087799 
	C107.304993,170.743378 107.394203,174.402969 107.393524,178.844543 
	C107.357635,180.116196 107.334358,180.604095 107.311081,181.091980 
z"/>
<path fill="#101010" opacity="1.000000" stroke="none" 
	d="
M156.355011,176.553726 
	C152.333191,168.470917 153.408066,161.187943 159.417130,157.074844 
	C161.494888,155.652679 164.828461,153.940582 166.650162,154.678192 
	C171.575043,156.672241 176.312408,154.901245 181.428207,155.108246 
	C181.428207,163.718094 181.428207,172.125595 181.428207,181.461365 
	C179.301804,181.067444 177.110046,180.597977 174.896072,180.286209 
	C174.135910,180.179153 173.255020,180.306564 172.540070,180.598312 
	C165.877014,183.317230 161.658066,182.349182 156.355011,176.553726 
M162.489212,163.162231 
	C160.004868,166.486237 159.622543,170.277756 162.507568,173.071548 
	C164.171051,174.682434 167.611710,175.548904 169.959702,175.125824 
	C174.301392,174.343491 176.190964,169.296616 174.387192,165.230103 
	C172.492615,160.958862 168.269180,159.985886 162.489212,163.162231 
z"/>
<path fill="#0F0F0F" opacity="1.000000" stroke="none" 
	d="
M227.176331,166.354568 
	C224.985809,172.335907 223.104584,178.022949 220.797409,183.531586 
	C218.580429,188.824890 214.674698,191.981583 208.235931,191.651276 
	C208.141830,189.661865 208.057632,187.882019 207.976639,186.169739 
	C215.845932,182.566727 215.807831,182.583069 212.296783,174.396637 
	C209.622879,168.162079 207.061401,161.879318 204.441574,155.597992 
	C209.515686,153.944626 212.436584,155.412521 213.802307,160.469452 
	C214.781921,164.096725 216.443634,167.539780 218.294327,172.346115 
	C219.848389,167.745224 221.312286,164.489883 222.013931,161.077805 
	C223.032181,156.126053 225.342789,153.766174 231.074814,155.564163 
	C229.825348,159.011963 228.562363,162.497101 227.176331,166.354568 
z"/>
<path fill="#73877F" opacity="1.000000" stroke="none" 
	d="
M177.072998,120.015732 
	C175.272202,122.296379 173.471390,124.577019 171.187241,126.688927 
	C170.137146,126.013519 169.570404,125.506859 169.346191,124.947525 
	C169.599777,123.587929 169.879913,122.084717 169.318481,121.029060 
	C168.752090,119.964050 167.198181,119.477875 166.339401,118.506134 
	C160.113190,111.461143 153.883133,104.416901 147.810287,97.240417 
	C145.648346,94.685593 143.918915,91.764755 141.994629,88.625610 
	C141.557892,86.894279 141.476776,85.231178 140.615707,84.258690 
	C137.343063,80.562637 133.818329,77.089798 130.387833,73.533524 
	C129.925232,74.022148 129.462616,74.510773 128.657303,74.944672 
	C126.543999,73.259659 124.773399,71.629372 123.368240,69.992264 
	C126.787796,69.616798 126.495148,67.520691 124.757935,66.549423 
	C122.998100,65.565514 122.912537,59.990021 118.704193,63.775444 
	C118.153740,63.120838 117.901642,62.689095 117.649536,62.257351 
	C118.535736,61.218243 119.421951,60.179138 120.922745,59.182182 
	C123.508499,61.223801 125.542267,63.165840 127.439224,65.233398 
	C133.351807,71.677704 139.168015,78.211159 145.136993,84.602280 
	C146.141754,85.678101 147.719742,86.218575 149.032013,87.358780 
	C149.688171,88.465767 150.345184,89.220383 151.008179,90.338989 
	C154.055359,94.229126 157.047287,97.799248 160.148438,101.271820 
	C165.755569,107.550507 171.427902,113.770958 177.072998,120.015732 
z"/>
<path fill="#657976" opacity="1.000000" stroke="none" 
	d="
M169.003662,125.000198 
	C169.570404,125.506859 170.137146,126.013519 170.856140,126.767014 
	C168.252014,128.353012 165.495621,129.692200 162.369934,130.629578 
	C161.191269,128.509186 160.704300,126.516525 159.516708,125.119476 
	C154.418655,119.122299 149.237473,113.184563 143.843552,107.453934 
	C140.053055,103.426842 135.870682,99.768608 132.062317,95.664780 
	C131.242935,95.097992 130.224548,94.812103 129.152618,94.130806 
	C128.039154,91.962860 127.205612,89.995689 125.878937,88.452438 
	C120.891022,82.650253 115.742348,76.986244 110.653900,71.270477 
	C111.217781,70.202850 111.781654,69.135223 112.785278,68.204147 
	C114.490067,69.400322 115.758224,70.456276 117.019661,71.520195 
	C125.163300,78.388634 130.623444,87.725403 139.208817,94.406601 
	C145.801987,99.537445 150.456497,107.133553 156.098328,113.522789 
	C159.350189,117.205429 162.802658,120.716797 166.286057,124.183449 
	C166.877289,124.771851 168.082245,124.743568 169.003662,125.000198 
z"/>
<path fill="#101010" opacity="1.000000" stroke="none" 
	d="
M125.635727,178.974792 
	C125.635727,171.199860 125.635727,163.424942 125.635727,154.698425 
	C128.406204,155.287827 130.452713,155.835678 132.535233,156.113571 
	C133.429199,156.232864 134.469269,155.953598 135.321579,155.579117 
	C142.639099,152.363968 149.411072,156.203201 149.922791,164.218704 
	C150.271072,169.674194 149.989365,175.169922 149.989365,180.992493 
	C147.835938,180.992493 145.783310,180.992493 143.206528,180.992493 
	C143.206528,176.183136 143.177948,171.423645 143.216293,166.664688 
	C143.243149,163.333191 141.906281,161.131393 138.365356,161.061020 
	C134.754929,160.989258 132.777435,162.981476 132.699173,166.566071 
	C132.594727,171.349106 132.673340,176.136124 132.673340,181.275131 
	C130.349915,181.275131 128.549835,181.275131 126.297775,180.810699 
	C125.775780,179.889114 125.705750,179.431946 125.635727,178.974792 
z"/>
<path fill="#94AB96" opacity="1.000000" stroke="none" 
	d="
M195.141663,103.222778 
	C193.073898,103.915085 191.006134,104.607399 188.413300,104.985535 
	C182.968552,98.501305 178.324127,92.085136 173.072510,86.211891 
	C161.793320,73.597603 150.201141,61.263206 138.737091,48.814217 
	C141.220322,48.218971 143.703568,47.623726 146.593979,47.447090 
	C151.136703,53.212242 155.132156,58.675041 159.445831,63.873783 
	C164.083282,69.462730 168.951614,74.866348 173.875336,80.206886 
	C175.031631,81.461075 176.815369,82.136810 178.183258,83.485138 
	C177.035629,88.094276 178.813843,89.619423 183.170044,89.151642 
	C187.346664,93.979652 191.244156,98.601212 195.141663,103.222778 
z"/>
<path fill="#8DA491" opacity="1.000000" stroke="none" 
	d="
M138.395599,48.842663 
	C150.201141,61.263206 161.793320,73.597603 173.072510,86.211891 
	C178.324127,92.085136 182.968552,98.501305 188.038147,105.012436 
	C187.386169,105.626282 186.584259,105.899063 185.252319,105.902588 
	C182.520599,103.952484 180.116211,102.476326 178.163910,100.543526 
	C175.117828,97.527847 172.419617,94.164200 169.501144,91.015533 
	C160.480881,81.283844 151.361328,71.643227 142.421844,61.838200 
	C139.497604,58.630814 138.107147,53.864243 132.733963,52.828178 
	C132.262894,52.289703 132.057877,51.923508 131.852859,51.557312 
	C133.919937,50.661911 135.987015,49.766506 138.395599,48.842663 
z"/>
<path fill="#6B8079" opacity="1.000000" stroke="none" 
	d="
M169.346191,124.947525 
	C168.082245,124.743568 166.877289,124.771851 166.286057,124.183449 
	C162.802658,120.716797 159.350189,117.205429 156.098328,113.522789 
	C150.456497,107.133553 145.801987,99.537445 139.208817,94.406601 
	C130.623444,87.725403 125.163300,78.388634 117.019661,71.520195 
	C115.758224,70.456276 114.490067,69.400322 113.045166,68.039696 
	C114.248398,65.990227 115.631477,64.241753 117.332047,62.375313 
	C117.901642,62.689095 118.153740,63.120838 118.729271,64.097000 
	C119.702614,65.427475 120.352524,66.213531 121.027649,67.320732 
	C121.702118,68.427032 122.351379,69.212181 123.000320,69.998665 
	C123.000000,70.000000 123.002800,69.999084 123.002800,69.999084 
	C124.773399,71.629372 126.543999,73.259659 128.691086,75.289566 
	C132.007614,79.185539 134.864243,82.757637 137.932541,86.137573 
	C139.020554,87.336090 140.623947,88.066742 141.992065,89.010986 
	C143.918915,91.764755 145.648346,94.685593 147.810287,97.240417 
	C153.883133,104.416901 160.113190,111.461143 166.339401,118.506134 
	C167.198181,119.477875 168.752090,119.964050 169.318481,121.029060 
	C169.879913,122.084717 169.599777,123.587929 169.346191,124.947525 
M137.485168,91.587349 
	C137.485168,91.587349 137.419617,91.475647 137.485168,91.587349 
z"/>
<path fill="#40515C" opacity="1.000000" stroke="none" 
	d="
M101.659912,112.212402 
	C103.866341,110.472275 104.563225,108.346283 103.691437,105.367111 
	C105.762642,105.355629 107.460838,105.701019 108.961258,106.330330 
	C107.142685,108.351547 102.966682,109.121780 106.485374,112.877296 
	C109.603073,110.556931 112.713356,108.242096 116.115860,106.140594 
	C117.624725,108.422318 118.573372,110.718842 120.105537,112.518616 
	C125.966507,119.403290 132.015121,126.128220 137.993698,132.912781 
	C125.330788,131.669952 114.000687,128.010956 107.163399,116.067192 
	C106.846016,115.512764 105.922707,115.305214 104.550262,114.901642 
	C103.099266,113.982262 102.379585,113.097328 101.659912,112.212402 
z"/>
<path fill="#A4BBA1" opacity="1.000000" stroke="none" 
	d="
M207.199402,94.049408 
	C205.198090,96.080124 203.196777,98.110840 200.467545,100.085754 
	C198.765610,99.235405 197.737381,98.498154 196.826935,97.636444 
	C192.733871,93.762505 188.674240,89.853226 184.508301,85.689758 
	C183.585938,84.376259 182.757828,83.329689 181.924973,81.912460 
	C181.283798,80.211357 180.931366,78.610374 179.964096,77.595177 
	C174.422958,71.779434 168.735794,66.102837 163.098206,60.379009 
	C165.803802,59.604656 168.509399,58.830307 171.606354,58.448051 
	C172.490067,59.975616 172.747818,61.309925 173.513718,62.213547 
	C177.745544,67.206276 181.941696,72.246017 186.453186,76.980827 
	C192.661011,83.495941 197.646469,91.575172 207.199402,94.049408 
z"/>
<path fill="#B4CDAD" opacity="1.000000" stroke="none" 
	d="
M178.883774,57.565788 
	C182.749924,57.837963 186.616058,58.110134 190.781387,58.992516 
	C195.405655,65.190086 199.558640,70.924583 204.144394,76.289116 
	C205.869522,78.307213 208.598221,79.467415 210.869415,81.018723 
	C210.428024,84.173935 209.986649,87.329140 208.899353,90.738434 
	C207.009964,90.287346 205.489197,89.836639 204.569427,88.834396 
	C199.710403,83.539757 194.850449,78.231422 190.288391,72.683174 
	C186.282867,67.811775 182.670059,62.617466 178.883774,57.565788 
z"/>
<path fill="#869D8C" opacity="1.000000" stroke="none" 
	d="
M133.000000,53.000458 
	C138.107147,53.864243 139.497604,58.630814 142.421844,61.838200 
	C151.361328,71.643227 160.480881,81.283844 169.501144,91.015533 
	C172.419617,94.164200 175.117828,97.527847 178.163910,100.543526 
	C180.116211,102.476326 182.520599,103.952484 184.923645,105.928513 
	C183.027390,106.522865 180.929794,106.822052 178.382065,106.722427 
	C176.914856,105.052460 176.008224,103.670357 174.861725,102.529274 
	C169.770935,97.462502 164.308151,92.734756 159.543396,87.382759 
	C151.105774,77.905251 143.016113,68.113869 134.947540,58.316551 
	C133.815613,56.942093 133.625870,54.791687 133.000000,53.000458 
z"/>
<path fill="#ABC3A5" opacity="1.000000" stroke="none" 
	d="
M178.456543,57.614227 
	C182.670059,62.617466 186.282867,67.811775 190.288391,72.683174 
	C194.850449,78.231422 199.710403,83.539757 204.569427,88.834396 
	C205.489197,89.836639 207.009964,90.287346 208.623657,90.995232 
	C208.573334,91.913361 208.152756,92.828804 207.465790,93.896820 
	C197.646469,91.575172 192.661011,83.495941 186.453186,76.980827 
	C181.941696,72.246017 177.745544,67.206276 173.513718,62.213547 
	C172.747818,61.309925 172.490067,59.975616 171.994812,58.470516 
	C174.004364,57.954807 176.016846,57.808735 178.456543,57.614227 
z"/>
<path fill="#9DB49E" opacity="1.000000" stroke="none" 
	d="
M162.790741,60.381077 
	C168.735794,66.102837 174.422958,71.779434 179.964096,77.595177 
	C180.931366,78.610374 181.283798,80.211357 181.608337,81.879059 
	C180.301117,82.503769 179.305786,82.791222 178.310440,83.078667 
	C176.815369,82.136810 175.031631,81.461075 173.875336,80.206886 
	C168.951614,74.866348 164.083282,69.462730 159.445831,63.873783 
	C155.132156,58.675041 151.136703,53.212242 146.991943,47.511658 
	C153.084656,47.294624 157.167236,50.245319 159.529709,55.864788 
	C160.215652,57.496426 161.482635,58.883797 162.790741,60.381077 
z"/>
<path fill="#82998A" opacity="1.000000" stroke="none" 
	d="
M132.733963,52.828178 
	C133.625870,54.791687 133.815613,56.942093 134.947540,58.316551 
	C143.016113,68.113869 151.105774,77.905251 159.543396,87.382759 
	C164.308151,92.734756 169.770935,97.462502 174.861725,102.529274 
	C176.008224,103.670357 176.914856,105.052460 177.966629,106.672623 
	C177.146179,107.197800 176.291000,107.373962 174.956970,107.780205 
	C174.478104,108.010277 173.988266,108.000778 173.984375,107.638275 
	C168.939362,101.359177 163.936432,95.408905 158.796844,89.579109 
	C158.294250,89.009010 156.950500,89.180481 155.998291,89.004181 
	C155.999390,89.000626 155.999680,89.001221 155.831970,88.746933 
	C154.775314,87.994141 153.886353,87.495628 152.993729,86.626724 
	C152.164200,84.511360 151.681244,82.462532 150.451859,81.075104 
	C145.656433,75.663200 140.280975,70.732849 135.805954,65.081238 
	C132.997925,61.534916 128.060394,59.306988 127.950539,53.846542 
	C129.040894,53.150043 130.131241,52.453548 131.537231,51.657181 
	C132.057877,51.923508 132.262894,52.289703 132.733963,52.828178 
z"/>
<path fill="#121212" opacity="1.000000" stroke="none" 
	d="
M198.106125,162.970581 
	C196.758392,165.439957 195.265671,167.668716 194.927475,170.060715 
	C194.443756,173.481934 194.804276,177.022537 194.804276,180.923447 
	C192.515976,180.923447 190.329727,180.923447 188.040573,180.923447 
	C188.040573,172.361069 188.040573,163.908371 188.040573,154.677658 
	C190.787506,155.238647 193.217712,155.734970 196.739349,156.454178 
	C197.462112,156.120972 199.501968,155.180588 202.165497,153.952667 
	C202.165497,156.816528 202.165497,159.017731 202.165497,161.638336 
	C201.186783,161.947311 199.831787,162.375092 198.106125,162.970581 
z"/>
<path fill="#4A5C63" opacity="1.000000" stroke="none" 
	d="
M138.374710,133.054672 
	C132.015121,126.128220 125.966507,119.403290 120.105537,112.518616 
	C118.573372,110.718842 117.624725,108.422318 116.282227,105.859741 
	C117.425621,104.543793 118.694870,103.722031 120.107834,103.210449 
	C127.813217,111.841385 135.572250,119.996223 142.801727,128.596222 
	C144.675674,130.825424 145.948700,132.616150 149.308655,132.009476 
	C150.072723,132.357925 150.538315,132.683228 151.003891,133.008514 
	C146.921173,133.071198 142.838440,133.133881 138.374710,133.054672 
z"/>
<path fill="#5D7070" opacity="1.000000" stroke="none" 
	d="
M131.863312,95.945656 
	C135.870682,99.768608 140.053055,103.426842 143.843552,107.453934 
	C149.237473,113.184563 154.418655,119.122299 159.516708,125.119476 
	C160.704300,126.516525 161.191269,128.509186 162.000275,130.610260 
	C160.607330,131.400574 159.214737,131.808426 157.262207,131.893265 
	C155.205902,129.284561 154.005493,126.720512 152.162369,124.760986 
	C143.826599,115.898727 135.309143,107.207367 127.094025,98.257874 
	C128.841721,97.356079 130.352509,96.650864 131.863312,95.945656 
z"/>
<path fill="#131313" opacity="1.000000" stroke="none" 
	d="
M119.830399,180.930359 
	C117.812088,181.047134 115.793785,181.163925 113.362183,180.807373 
	C112.886497,179.883957 112.824104,179.433899 112.761719,178.983841 
	C112.819405,172.672363 112.722687,166.353638 113.018120,160.053299 
	C113.122185,157.833832 114.186142,155.659393 115.034767,152.682251 
	C113.457909,151.311218 109.990570,149.081650 113.640770,145.613327 
	C114.610817,144.691620 117.677345,144.580536 118.745224,145.418152 
	C122.005402,147.975357 120.194664,150.587341 119.078705,152.835464 
	C119.309532,158.092743 119.585213,163.348557 119.754356,168.607803 
	C119.855820,171.762787 119.790916,174.923111 119.788620,178.849594 
	C119.794434,180.055557 119.812416,180.492950 119.830399,180.930359 
z"/>
<path fill="#56696B" opacity="1.000000" stroke="none" 
	d="
M126.857109,98.454460 
	C135.309143,107.207367 143.826599,115.898727 152.162369,124.760986 
	C154.005493,126.720512 155.205902,129.284561 156.895050,131.877106 
	C155.321381,132.502838 153.554916,132.821732 151.396179,133.074570 
	C150.538315,132.683228 150.072723,132.357925 149.304794,131.629089 
	C148.319336,129.635559 147.970367,127.757683 146.893051,126.507416 
	C143.030319,122.024605 138.580887,118.013969 135.003494,113.328362 
	C131.616455,108.892059 126.177658,105.621758 126.180878,98.916870 
	C126.530083,98.625809 126.693596,98.540131 126.857109,98.454460 
z"/>
<path fill="#4A5C63" opacity="1.000000" stroke="none" 
	d="
M109.159027,106.046417 
	C107.460838,105.701019 105.762642,105.355629 103.684814,105.014938 
	C103.181671,104.573082 103.058174,104.126526 103.271255,103.055618 
	C103.363571,99.601723 103.119301,96.772202 102.875031,93.942673 
	C103.290955,90.755241 103.706879,87.567810 104.730377,84.163277 
	C105.559052,83.963730 105.780136,83.981277 106.005356,84.366013 
	C108.531166,90.488235 112.246361,95.164848 118.225555,98.119934 
	C118.644165,98.517006 118.835388,98.795357 118.895050,99.388206 
	C115.562004,101.817268 112.360519,103.931839 109.159027,106.046417 
z"/>
<path fill="#7B8F84" opacity="1.000000" stroke="none" 
	d="
M173.988266,108.000778 
	C173.988266,108.000778 174.478104,108.010277 174.722946,108.007645 
	C175.850998,111.822083 176.734207,115.639160 177.345200,119.735977 
	C171.427902,113.770958 165.755569,107.550507 160.148438,101.271820 
	C157.047287,97.799248 154.055359,94.229126 151.259094,90.064323 
	C153.002548,89.284180 154.501114,89.142700 155.999680,89.001221 
	C155.999680,89.001221 155.999390,89.000626 156.034851,89.356644 
	C159.459091,93.846466 162.655731,98.160889 166.308701,102.046310 
	C168.500290,104.377357 171.404388,106.038536 173.988266,108.000778 
z"/>
<path fill="#56696B" opacity="1.000000" stroke="none" 
	d="
M106.001221,83.998833 
	C105.780136,83.981277 105.559052,83.963730 105.008286,83.901443 
	C105.620750,81.406685 106.562904,78.956657 108.008186,76.430527 
	C109.778343,77.622314 111.063438,78.872734 112.309204,80.161186 
	C117.086227,85.101944 122.775688,89.434181 123.386024,97.223221 
	C121.774918,97.979416 120.400764,98.526566 119.026604,99.073715 
	C118.835388,98.795357 118.644165,98.517006 118.191086,97.769882 
	C116.479599,94.958473 115.332138,92.338524 113.502426,90.344666 
	C111.305641,87.950775 108.527588,86.090286 106.001221,83.998833 
z"/>
<path fill="#BFD7B5" opacity="1.000000" stroke="none" 
	d="
M210.915695,80.620728 
	C208.598221,79.467415 205.869522,78.307213 204.144394,76.289116 
	C199.558640,70.924583 195.405655,65.190086 191.069595,59.237808 
	C201.799026,61.138985 209.477661,69.375656 210.915695,80.620728 
z"/>
<path fill="#7C9285" opacity="1.000000" stroke="none" 
	d="
M127.623032,53.908485 
	C128.060394,59.306988 132.997925,61.534916 135.805954,65.081238 
	C140.280975,70.732849 145.656433,75.663200 150.451859,81.075104 
	C151.681244,82.462532 152.164200,84.511360 152.619385,86.627487 
	C151.499954,87.001633 150.751205,87.004631 149.953217,86.669388 
	C148.423706,84.819000 146.870255,83.371132 145.475327,81.783958 
	C138.159271,73.459595 130.883331,65.099960 123.593445,56.752586 
	C124.827477,55.825199 126.061508,54.897808 127.623032,53.908485 
z"/>
<path fill="#2F3B4C" opacity="1.000000" stroke="none" 
	d="
M101.331429,112.334488 
	C102.379585,113.097328 103.099266,113.982262 104.222687,115.017731 
	C99.450081,120.952324 94.273735,126.736366 88.820587,132.829727 
	C87.538376,131.976562 86.088753,131.011993 83.701653,129.423645 
	C89.737663,123.504227 95.370300,117.980392 101.331429,112.334488 
z"/>
<path fill="#5D7070" opacity="1.000000" stroke="none" 
	d="
M123.622978,97.014160 
	C122.775688,89.434181 117.086227,85.101944 112.309204,80.161186 
	C111.063438,78.872734 109.778343,77.622314 108.231918,76.165359 
	C108.645859,74.522141 109.339188,73.067978 110.343201,71.442139 
	C115.742348,76.986244 120.891022,82.650253 125.878937,88.452438 
	C127.205612,89.995689 128.039154,91.962860 128.873337,94.318138 
	C126.972710,95.605301 125.297844,96.309731 123.622978,97.014160 
z"/>
<path fill="#7B8F84" opacity="1.000000" stroke="none" 
	d="
M123.312012,56.845112 
	C130.883331,65.099960 138.159271,73.459595 145.475327,81.783958 
	C146.870255,83.371132 148.423706,84.819000 149.710815,86.670250 
	C149.517624,87.009361 149.032867,87.006409 149.032867,87.006409 
	C147.719742,86.218575 146.141754,85.678101 145.136993,84.602280 
	C139.168015,78.211159 133.351807,71.677704 127.439224,65.233398 
	C125.542267,63.165840 123.508499,61.223801 121.201996,59.073723 
	C121.587975,58.261292 122.309273,57.599468 123.312012,56.845112 
z"/>
<path fill="#9DB49E" opacity="1.000000" stroke="none" 
	d="
M184.602539,85.956680 
	C188.674240,89.853226 192.733871,93.762505 196.826935,97.636444 
	C197.737381,98.498154 198.765610,99.235405 200.133057,100.074554 
	C198.958145,101.116486 197.389801,102.113838 195.481567,103.166985 
	C191.244156,98.601212 187.346664,93.979652 183.307129,88.893005 
	C183.644257,87.604187 184.123398,86.780434 184.602539,85.956680 
z"/>
<path fill="#40515C" opacity="1.000000" stroke="none" 
	d="
M102.717911,94.292831 
	C103.119301,96.772202 103.363571,99.601723 103.321976,102.707352 
	C102.877663,100.203293 102.719231,97.423134 102.717911,94.292831 
z"/>
<path fill="#F1F1F1" opacity="1.000000" stroke="none" 
	d="
M112.396637,178.984589 
	C112.824104,179.433899 112.886497,179.883957 112.944275,180.677704 
	C111.330643,181.033112 109.721603,181.044815 107.711823,181.074249 
	C107.334358,180.604095 107.357635,180.116196 107.525970,179.291824 
	C109.124535,178.965332 110.578041,178.975327 112.396637,178.984589 
z"/>
<path fill="#F1F1F1" opacity="1.000000" stroke="none" 
	d="
M120.261810,180.949280 
	C119.812416,180.492950 119.794434,180.055557 119.888130,179.309082 
	C121.611160,178.992325 123.222511,178.984650 125.234802,178.975891 
	C125.705750,179.431946 125.775780,179.889114 125.852905,180.696686 
	C124.137741,181.020813 122.415474,180.994507 120.261810,180.949280 
z"/>
<path fill="#F3F3F3" opacity="1.000000" stroke="none" 
	d="
M162.794754,162.896057 
	C168.269180,159.985886 172.492615,160.958862 174.387192,165.230103 
	C176.190964,169.296616 174.301392,174.343491 169.959702,175.125824 
	C167.611710,175.548904 164.171051,174.682434 162.507568,173.071548 
	C159.622543,170.277756 160.004868,166.486237 162.794754,162.896057 
z"/>
<path fill="#72877E" opacity="1.000000" stroke="none" 
	d="
M141.994629,88.625610 
	C140.623947,88.066742 139.020554,87.336090 137.932541,86.137573 
	C134.864243,82.757637 132.007614,79.185539 129.033783,75.344292 
	C129.462616,74.510773 129.925232,74.022148 130.387833,73.533524 
	C133.818329,77.089798 137.343063,80.562637 140.615707,84.258690 
	C141.476776,85.231178 141.557892,86.894279 141.994629,88.625610 
z"/>
<path fill="#72877E" opacity="1.000000" stroke="none" 
	d="
M121.002441,66.999580 
	C120.352524,66.213531 119.702614,65.427475 119.027618,64.319870 
	C122.912537,59.990021 122.998100,65.565514 124.757935,66.549423 
	C126.495148,67.520691 126.787796,69.616798 123.368240,69.992264 
	C123.002800,69.999084 123.000000,70.000000 122.994888,69.645218 
	C122.327332,68.526825 121.664886,67.763199 121.002441,66.999580 
z"/>
<path fill="#869D8C" opacity="1.000000" stroke="none" 
	d="
M149.032013,87.358780 
	C149.032867,87.006409 149.517624,87.009361 149.760040,87.008499 
	C150.751205,87.004631 151.499954,87.001633 152.623047,86.997879 
	C153.886353,87.495628 154.775314,87.994141 155.831970,88.746941 
	C154.501114,89.142700 153.002548,89.284180 151.253082,89.700325 
	C150.345184,89.220383 149.688171,88.465767 149.032013,87.358780 
z"/>
<path fill="#E4EBEC" opacity="1.000000" stroke="none" 
	d="
M123.386024,97.223213 
	C125.297844,96.309731 126.972710,95.605301 128.926865,94.713539 
	C130.224548,94.812103 131.242935,95.097992 132.062317,95.664764 
	C130.352509,96.650864 128.841721,97.356079 127.094025,98.257874 
	C126.693596,98.540131 126.530083,98.625809 125.862045,98.989746 
	C123.559708,100.478760 121.761909,101.689514 119.964119,102.900269 
	C118.694870,103.722031 117.425621,104.543793 115.989998,105.646400 
	C112.713356,108.242096 109.603073,110.556931 106.485374,112.877296 
	C102.966682,109.121780 107.142685,108.351547 108.961258,106.330338 
	C112.360519,103.931839 115.562004,101.817268 118.895050,99.388214 
	C120.400764,98.526566 121.774918,97.979416 123.386024,97.223213 
z"/>
<path fill="#F3F3F3" opacity="1.000000" stroke="none" 
	d="
M184.508286,85.689758 
	C184.123398,86.780434 183.644257,87.604187 183.028015,88.686569 
	C178.813843,89.619423 177.035629,88.094276 178.183258,83.485138 
	C179.305786,82.791222 180.301117,82.503769 181.613098,82.249725 
	C182.757828,83.329689 183.585938,84.376259 184.508286,85.689758 
z"/>
<path fill="#73877F" opacity="1.000000" stroke="none" 
	d="
M121.027649,67.320732 
	C121.664886,67.763199 122.327332,68.526825 122.995209,69.643890 
	C122.351379,69.212181 121.702118,68.427032 121.027649,67.320732 
z"/>
<path fill="#657976" opacity="1.000000" stroke="none" 
	d="
M137.452393,91.531494 
	C137.419617,91.475647 137.485168,91.587349 137.452393,91.531494 
z"/>
<path fill="#7E9487" opacity="1.000000" stroke="none" 
	d="
M173.984375,107.638275 
	C171.404388,106.038536 168.500290,104.377357 166.308701,102.046310 
	C162.655731,98.160889 159.459091,93.846466 156.033752,89.360207 
	C156.950500,89.180481 158.294250,89.009010 158.796844,89.579109 
	C163.936432,95.408905 168.939362,101.359177 173.984375,107.638275 
z"/>
<path fill="#506267" opacity="1.000000" stroke="none" 
	d="
M120.107834,103.210449 
	C121.761909,101.689514 123.559708,100.478760 125.676346,99.195129 
	C126.177658,105.621758 131.616455,108.892059 135.003494,113.328362 
	C138.580887,118.013969 143.030319,122.024605 146.893051,126.507416 
	C147.970367,127.757683 148.319336,129.635559 149.006302,131.605927 
	C145.948700,132.616150 144.675674,130.825424 142.801727,128.596222 
	C135.572250,119.996223 127.813217,111.841385 120.107834,103.210449 
z"/>
<path fill="#506267" opacity="1.000000" stroke="none" 
	d="
M106.005356,84.366013 
	C108.527588,86.090286 111.305641,87.950775 113.502426,90.344666 
	C115.332138,92.338524 116.479599,94.958473 117.963699,97.651169 
	C112.246361,95.164848 108.531166,90.488235 106.005356,84.366013 
z"/>
</svg>